<svg width="3185" height="1792" viewBox="0 0 3185 1792" fill="none" xmlns="http://www.w3.org/2000/svg">
<g clip-path="url(#clip0_12_2516)">
<rect width="3184.66" height="1791.37" fill="#17181F"/>
<path fill-rule="evenodd" clip-rule="evenodd" d="M875.608 -26.8588L-751.996 1600.74L-265.742 2087L1212.03 609.222L1212.03 1812.61L1987.31 1812.61L1987.31 625.581L3443.15 2081.42L3950.96 1573.61L2350.18 -27.1659C2122.45 -10.1437 1872.73 -0.748535 1610.83 -0.748535C1350.52 -0.748535 1102.23 -10.0307 875.608 -26.8588Z" fill="#1B1C25"/>
<path fill-rule="evenodd" clip-rule="evenodd" d="M2543.13 -261.535L4170.65 1365.99L4656.89 879.752L3179.08 -598.064L4382.57 -598.064L4382.57 -1373.34L3195.58 -1373.34L4651.44 -2829.2L4143.62 -3337.01L2542.82 -1736.21C2559.85 -1508.48 2569.24 -1258.75 2569.24 -996.856C2569.24 -736.504 2559.96 -488.185 2543.13 -261.535Z" fill="#1B1C25"/>
<path fill-rule="evenodd" clip-rule="evenodd" d="M640.831 -1694.18L-986.763 -3321.77L-1473 -2835.53L3.42356 -1359.11L-1198.79 -1359.11L-1198.79 -583.838L-11.1413 -583.838L-1468.07 873.093L-960.253 1380.91L640.95 -220.29C624.004 -447.592 614.653 -696.753 614.653 -958.031C614.653 -1218.7 623.96 -1467.3 640.831 -1694.18Z" fill="#1B1C25"/>
</g>
<defs>
<clipPath id="clip0_12_2516">
<rect width="3184.66" height="1791.37" fill="white"/>
</clipPath>
</defs>
</svg>
