<svg width="19" height="19" viewBox="0 0 19 19" fill="none" xmlns="http://www.w3.org/2000/svg">
<path d="M9.79925 1.26824C9.70843 1.21524 9.60516 1.18732 9.5 1.18732C9.39484 1.18732 9.29157 1.21524 9.20075 1.26824L2.375 5.25033L9.5 9.40658L16.625 5.25033L9.79925 1.26824ZM17.2188 6.27791L10.0938 10.4342V17.5592L16.9243 13.5755C17.0139 13.5232 17.0883 13.4483 17.1399 13.3583C17.1916 13.2683 17.2188 13.1663 17.2188 13.0625V6.27791ZM8.90625 17.5592V10.4342L1.78125 6.27791V13.0625C1.78122 13.1663 1.8084 13.2683 1.86007 13.3583C1.91174 13.4483 1.98611 13.5232 2.07575 13.5755L8.90625 17.5592Z" fill="#52ABFF"/>
</svg>
