<svg width="20" height="20" viewBox="0 0 20 20" fill="none" xmlns="http://www.w3.org/2000/svg">
<path fill-rule="evenodd" clip-rule="evenodd" d="M0.25 9.75879C0.25 4.37379 4.615 0.00878906 10 0.00878906C15.385 0.00878906 19.75 4.37379 19.75 9.75879C19.75 15.1438 15.385 19.5088 10 19.5088C4.615 19.5088 0.25 15.1438 0.25 9.75879ZM13.61 7.94479C13.67 7.86484 13.7134 7.7737 13.7377 7.67674C13.762 7.57977 13.7666 7.47893 13.7514 7.38014C13.7361 7.28136 13.7012 7.18661 13.6489 7.10149C13.5965 7.01636 13.5276 6.94256 13.4463 6.88444C13.3649 6.82631 13.2728 6.78503 13.1753 6.76302C13.0778 6.741 12.9769 6.7387 12.8785 6.75625C12.7801 6.7738 12.6862 6.81084 12.6023 6.8652C12.5184 6.91956 12.4462 6.99014 12.39 7.07279L9.154 11.6028L7.53 9.97879C7.38783 9.84631 7.19978 9.77419 7.00548 9.77761C6.81118 9.78104 6.62579 9.85975 6.48838 9.99717C6.35097 10.1346 6.27225 10.32 6.26882 10.5143C6.2654 10.7086 6.33752 10.8966 6.47 11.0388L8.72 13.2888C8.79699 13.3657 8.8898 13.425 8.99199 13.4624C9.09418 13.4999 9.20329 13.5147 9.31176 13.5057C9.42023 13.4968 9.52546 13.4643 9.62013 13.4106C9.7148 13.3569 9.79665 13.2833 9.86 13.1948L13.61 7.94479Z" fill="#84F5CC"/>
</svg>
