<svg width="20" height="20" viewBox="0 0 20 20" fill="none" xmlns="http://www.w3.org/2000/svg">
<path fill-rule="evenodd" clip-rule="evenodd" d="M10.4417 13.5667C10.3245 13.6837 10.1657 13.7495 10 13.7495C9.83441 13.7495 9.67556 13.6837 9.55837 13.5667L3.30837 7.31669C3.19797 7.19821 3.13787 7.04151 3.14072 6.87959C3.14358 6.71767 3.20917 6.56319 3.32368 6.44867C3.43819 6.33416 3.59268 6.26857 3.7546 6.26571C3.91652 6.26286 4.07322 6.32296 4.1917 6.43336L10 12.2417L15.8084 6.43336C15.8656 6.37195 15.9346 6.3227 16.0113 6.28854C16.0879 6.25438 16.1707 6.23601 16.2546 6.23453C16.3385 6.23305 16.4219 6.24849 16.4997 6.27992C16.5775 6.31136 16.6482 6.35815 16.7076 6.41749C16.7669 6.47684 16.8137 6.54754 16.8451 6.62536C16.8766 6.70318 16.892 6.78654 16.8905 6.87046C16.889 6.95438 16.8707 7.03714 16.8365 7.11381C16.8024 7.19047 16.7531 7.25947 16.6917 7.31669L10.4417 13.5667Z" fill="#C5DBFF"/>
</svg>
