<svg width="24" height="24" viewBox="0 0 24 24" fill="none" xmlns="http://www.w3.org/2000/svg">
<path d="M11.6433 1.58939C11.7527 1.5304 11.875 1.49951 11.9993 1.49951C12.1236 1.49951 12.2459 1.5304 12.3553 1.58939L22.1053 6.83939C22.2243 6.90365 22.3238 6.99893 22.3931 7.11512C22.4625 7.23131 22.4991 7.36409 22.4991 7.49939C22.4991 7.63469 22.4625 7.76747 22.3931 7.88366C22.3238 7.99985 22.2243 8.09512 22.1053 8.15939L12.3553 13.4094C12.2459 13.4684 12.1236 13.4993 11.9993 13.4993C11.875 13.4993 11.7527 13.4684 11.6433 13.4094L1.89328 8.15939C1.77422 8.09512 1.67476 7.99985 1.60543 7.88366C1.53611 7.76747 1.49951 7.63469 1.49951 7.49939C1.49951 7.36409 1.53611 7.23131 1.60543 7.11512C1.67476 6.99893 1.77422 6.90365 1.89328 6.83939L11.6433 1.58939Z" fill="#7CC0FF"/>
<path d="M3.26426 10.5986L10.9323 14.7276C11.2602 14.9043 11.6268 14.9967 11.9993 14.9967C12.3717 14.9967 12.7383 14.9043 13.0663 14.7276L20.7343 10.5976L22.1043 11.3366C22.2233 11.4009 22.3228 11.4962 22.3921 11.6124C22.4614 11.7285 22.498 11.8613 22.498 11.9966C22.498 12.1319 22.4614 12.2647 22.3921 12.3809C22.3228 12.4971 22.2233 12.5924 22.1043 12.6566L12.3543 17.9066C12.2451 17.9653 12.1232 17.996 11.9993 17.996C11.8754 17.996 11.7534 17.9653 11.6443 17.9066L1.89426 12.6566C1.77519 12.5924 1.67573 12.4971 1.60641 12.3809C1.53709 12.2647 1.50049 12.1319 1.50049 11.9966C1.50049 11.8613 1.53709 11.7285 1.60641 11.6124C1.67573 11.4962 1.77519 11.4009 1.89426 11.3366L3.26426 10.5986Z" fill="#7CC0FF"/>
<path d="M10.9323 19.2303L3.26426 15.1003L1.89426 15.8393C1.77519 15.9036 1.67573 15.9989 1.60641 16.115C1.53709 16.2312 1.50049 16.364 1.50049 16.4993C1.50049 16.6346 1.53709 16.7674 1.60641 16.8836C1.67573 16.9998 1.77519 17.095 1.89426 17.1593L11.6443 22.4093C11.8653 22.5293 12.1333 22.5293 12.3543 22.4093L22.1043 17.1593C22.2233 17.095 22.3228 16.9998 22.3921 16.8836C22.4614 16.7674 22.498 16.6346 22.498 16.4993C22.498 16.364 22.4614 16.2312 22.3921 16.115C22.3228 15.9989 22.2233 15.9036 22.1043 15.8393L20.7343 15.1013L13.0663 19.2313C12.7383 19.4078 12.3716 19.5001 11.9991 19.4999C11.6267 19.4997 11.2601 19.4071 10.9323 19.2303Z" fill="#7CC0FF"/>
</svg>
