<svg width="26" height="28" viewBox="0 0 26 28" fill="none" xmlns="http://www.w3.org/2000/svg">
<path fill-rule="evenodd" clip-rule="evenodd" d="M4.37469 0C11.5831 0 18.7916 0 26 0C25.977 1.63702 25.3241 2.95378 24.0412 3.95028C23.2829 4.49763 22.434 4.79362 21.4947 4.83827C18.0342 4.84262 14.5736 4.84698 11.113 4.85133C12.8073 5.02864 14.1197 5.82305 15.0502 7.23456C15.51 7.97866 15.7712 8.7883 15.8338 9.66349C15.8344 13.9425 15.843 18.2214 15.8599 22.5003C15.8697 23.0831 15.9219 23.6621 16.0166 24.2371C16.0871 24.6534 16.2177 25.0495 16.4083 25.4254C16.7257 25.9839 17.1893 26.3692 17.7991 26.5811C18.2243 26.7194 18.6595 26.8087 19.105 26.8488C18.585 27.3005 17.9886 27.616 17.3159 27.7956C17.0903 27.8542 16.864 27.8999 16.6369 27.9327C16.0927 27.9327 15.5487 27.9327 15.0045 27.9327C13.3301 27.7568 12.0743 26.9428 11.2371 25.4907C10.8615 24.7892 10.6612 24.0405 10.6364 23.2446C10.6298 17.1113 10.6277 10.9781 10.6298 4.8448C7.08656 4.8448 3.54327 4.8448 0 4.8448C0.0225669 3.36131 0.584092 2.12726 1.68458 1.14264C2.45934 0.478962 3.35605 0.0980802 4.37469 0Z" fill="#6AC3FF"/>
</svg>
