<svg width="31" height="32" viewBox="0 0 31 32" fill="none" xmlns="http://www.w3.org/2000/svg">
<rect y="0.712646" width="30.9415" height="30.9415" rx="3.51609" fill="#6AC3FF"/>
<path fill-rule="evenodd" clip-rule="evenodd" d="M25.3679 6.49464C25.3801 6.47899 25.4008 6.47239 25.4189 6.48045C25.4324 6.48646 25.4416 6.49937 25.4436 6.514C25.4516 6.57027 25.4566 6.62687 25.4587 6.68376C25.4748 7.5447 25.4797 8.40572 25.4736 9.26681C25.4694 10.3375 25.2121 11.342 24.7016 12.2804C23.9575 13.5563 22.8873 14.4408 21.4914 14.9339C21.0111 15.1037 20.5163 15.2002 20.0069 15.2234C15.2243 15.2284 10.4417 15.2284 5.65909 15.2234C5.55854 15.2178 5.44883 15.1668 5.43456 15.0671C5.43372 15.0612 5.4331 15.0551 5.43271 15.049C5.39032 13.5439 5.88021 12.245 6.90237 11.1521C7.83435 10.1709 8.97623 9.60305 10.3279 9.44866C13.1706 9.42528 16.0135 9.41288 18.8564 9.41155C19.5395 9.37614 20.2149 9.28462 20.8827 9.13691C21.7468 8.96953 22.5633 8.67263 23.3322 8.24621C23.626 8.0907 23.9081 7.91746 24.1783 7.72663C24.4674 7.50692 24.7334 7.26071 24.9763 6.98808C25.1085 6.82463 25.239 6.66017 25.3679 6.49464Z" fill="#22242E"/>
<path fill-rule="evenodd" clip-rule="evenodd" d="M25.2867 15.3247C25.3211 15.2779 25.3918 15.2888 25.4005 15.3462C25.4156 16.1403 25.4231 16.9345 25.4228 17.7288C25.4307 18.3424 25.3689 18.9486 25.2372 19.5474C24.865 21.0469 24.0374 22.2209 22.7544 23.0693C22.052 23.5212 21.2875 23.8157 20.4608 23.9526C20.3078 23.971 20.1544 23.9859 20.0006 23.9972C15.1834 24.0021 10.3661 24.0021 5.54889 23.9972C5.47326 23.9932 5.42011 23.9572 5.38931 23.8895C5.37276 23.8388 5.36281 23.7869 5.35962 23.7337C5.36571 22.659 5.65021 21.6643 6.21321 20.7498C6.76523 19.9058 7.48648 19.2489 8.37688 18.7791C8.74789 18.5887 9.1341 18.4432 9.53558 18.3427C9.79473 18.2778 10.0624 18.2585 10.3296 18.2563C13.1351 18.2336 15.9407 18.21 18.7462 18.1853C20.4167 18.1345 21.9878 17.7164 23.4595 16.9309C24.0359 16.5924 24.5517 16.1754 25.0071 15.6802C25.1046 15.5646 25.1978 15.4461 25.2867 15.3247Z" fill="#22242E"/>
</svg>
