<svg width="42" height="40" viewBox="0 0 42 40" fill="none" xmlns="http://www.w3.org/2000/svg">
<rect x="41.3296" y="0.350891" width="39.6252" height="41.3296" rx="6.44148" transform="rotate(90 41.3296 0.350891)" fill="#17181F"/>
<path fill-rule="evenodd" clip-rule="evenodd" d="M30.6813 9.70111C30.6941 9.68532 30.7153 9.67867 30.7341 9.68662C30.7486 9.69279 30.7585 9.70647 30.7608 9.7221C30.769 9.7781 30.7742 9.83444 30.7764 9.89106C30.7933 10.7556 30.7984 11.6203 30.792 12.485C30.7876 13.5602 30.5181 14.5689 29.9834 15.5112C29.204 16.7925 28.0832 17.6808 26.621 18.1759C26.118 18.3464 25.5997 18.4433 25.0662 18.4666C20.0569 18.4716 15.0476 18.4716 10.0384 18.4666C9.93318 18.461 9.81602 18.4098 9.80258 18.3053C9.802 18.3008 9.80155 18.2961 9.80124 18.2914C9.75684 16.78 10.27 15.4756 11.3406 14.3782C12.3167 13.3928 13.5127 12.8226 14.9284 12.6676C17.9059 12.6441 20.8835 12.6317 23.8611 12.6303C24.5766 12.5948 25.2841 12.5029 25.9835 12.3545C26.8886 12.1864 27.7437 11.8883 28.5491 11.4601C28.8569 11.3039 29.1523 11.1299 29.4354 10.9383C29.7381 10.7177 30.0167 10.4704 30.2711 10.1967C30.4096 10.0325 30.5463 9.86735 30.6813 9.70111Z" fill="#7CC0FF"/>
<path fill-rule="evenodd" clip-rule="evenodd" d="M30.598 18.5691C30.6342 18.5216 30.7068 18.533 30.7161 18.592C30.7319 19.3895 30.7397 20.187 30.7394 20.9847C30.7477 21.6008 30.683 22.2095 30.5451 22.8108C30.1552 24.3167 29.2884 25.4956 27.9445 26.3476C27.2089 26.8014 26.4082 27.0971 25.5423 27.2346C25.382 27.2531 25.2213 27.268 25.0602 27.2794C20.0147 27.2843 14.9691 27.2843 9.92359 27.2794C9.84437 27.2753 9.7887 27.2393 9.75644 27.1713C9.7391 27.1204 9.72868 27.0682 9.72534 27.0147C9.73172 25.9355 10.0297 24.9367 10.6194 24.0183C11.1976 23.1708 11.953 22.5111 12.8856 22.0394C13.2841 21.8433 13.6993 21.6947 14.1313 21.5935C14.3819 21.5348 14.6398 21.5166 14.8972 21.5146C17.8469 21.4917 20.7966 21.4679 23.7464 21.4431C25.4961 21.392 27.1417 20.9721 28.6831 20.1834C29.2868 19.8434 29.8271 19.4247 30.304 18.9274C30.4065 18.8109 30.5045 18.6914 30.598 18.5691Z" fill="#7CC0FF"/>
</svg>
