<svg width="31" height="28" viewBox="0 0 31 28" fill="none" xmlns="http://www.w3.org/2000/svg">
<path fill-rule="evenodd" clip-rule="evenodd" d="M30.8334 0.0402674C30.8521 0.0161545 30.8841 0.00598106 30.912 0.0184066C30.9328 0.0276646 30.9469 0.0475665 30.9501 0.0701117C30.9623 0.156813 30.97 0.244033 30.9734 0.331695C30.9982 1.65836 31.0057 2.98514 30.9962 4.31204C30.9898 5.96194 30.5933 7.50981 29.8067 8.95577C28.66 10.9219 27.011 12.285 24.8599 13.0448C24.1197 13.3064 23.3573 13.455 22.5723 13.4908C15.2026 13.4985 7.8328 13.4985 0.463104 13.4908C0.308157 13.4823 0.139094 13.4036 0.117111 13.25C0.115808 13.2409 0.114855 13.2316 0.114252 13.2221C0.0489422 10.9028 0.803835 8.90122 2.37893 7.21723C3.81506 5.70516 5.57464 4.83017 7.65746 4.59226C12.038 4.55624 16.4187 4.53713 20.7995 4.53508C21.8521 4.48052 22.8929 4.33949 23.922 4.11188C25.2534 3.85396 26.5116 3.39645 27.6964 2.73935C28.1493 2.49972 28.5839 2.23277 29.0003 1.9387C29.4457 1.60014 29.8557 1.22075 30.2299 0.800644C30.4336 0.548766 30.6348 0.29534 30.8334 0.0402674Z" fill="#6AC3FF"/>
<path fill-rule="evenodd" clip-rule="evenodd" d="M30.7067 13.6484C30.7596 13.5762 30.8686 13.593 30.882 13.6815C30.9053 14.9052 30.9167 16.1291 30.9163 17.353C30.9285 18.2985 30.8333 19.2326 30.6303 20.1553C30.0569 22.466 28.7815 24.275 26.8044 25.5825C25.7222 26.2788 24.5441 26.7326 23.2701 26.9436C23.0344 26.9719 22.798 26.9948 22.561 27.0122C15.1379 27.0199 7.71478 27.0199 0.291663 27.0122C0.175112 27.006 0.0932178 26.9507 0.0457511 26.8464C0.0202449 26.7682 0.00491824 26.6882 0 26.6062C0.00937897 24.9501 0.447789 23.4174 1.31534 22.0082C2.16597 20.7076 3.27738 19.6954 4.64945 18.9715C5.22116 18.6781 5.81629 18.4539 6.43495 18.2989C6.83429 18.1989 7.24682 18.1692 7.65847 18.1658C11.9817 18.1309 16.3048 18.0944 20.628 18.0564C23.2022 17.9781 25.6232 17.3338 27.891 16.1235C28.7791 15.6018 29.5741 14.9593 30.2758 14.1962C30.426 14.018 30.5697 13.8354 30.7067 13.6484Z" fill="#6AC3FF"/>
</svg>
