<svg width="467" height="158" viewBox="0 0 467 158" fill="none" xmlns="http://www.w3.org/2000/svg">
<mask id="path-1-outside-1_5123_1733" maskUnits="userSpaceOnUse" x="-0.835938" y="27" width="461" height="92" fill="black">
<rect fill="white" x="-0.835938" y="27" width="461" height="92"/>
<path d="M39.0099 113H29.5699V41.8546H4.70357V34.0263H64.567V41.8546H39.0099V113ZM125.225 113L118.088 91.4722H81.1338L74.1113 113H64.2108L86.6596 44.2722C87.926 40.2429 89.5377 37.48 91.4947 35.8683C93.4518 34.3717 96.0996 33.5658 99.5533 33.5658C102.892 33.5658 105.54 34.3717 107.497 35.8683C109.454 37.48 111.065 40.2429 112.447 44.2722L135.126 113H125.225ZM94.7181 47.6107L83.0908 83.6439H116.131L104.504 47.6107C103.122 43.6966 101.51 41.7395 99.6684 41.7395C98.5172 41.7395 97.4811 42.2 96.7903 43.121C96.0996 44.0419 95.4089 45.5385 94.7181 47.6107ZM166.033 34.0263H182.495C199.878 34.0263 208.628 42.3151 208.628 58.6624C208.628 70.6351 202.411 78.118 189.978 81.1112L211.045 113H200.454L180.883 82.3776C178.12 82.3776 171.904 82.0322 162.234 81.2263V113H153.024V47.7259C153.024 43.0059 153.83 39.5522 155.672 37.3649C157.514 35.1776 160.967 34.0263 166.033 34.0263ZM181.804 41.5093H167.644C163.96 41.5093 162.234 43.2361 162.234 46.5746V73.5132C169.832 74.4341 175.588 74.7795 179.502 74.7795C192.626 74.7795 199.188 69.7141 199.188 59.5834V57.8566C199.188 47.0351 193.317 41.5093 181.804 41.5093ZM285.535 70.7502V100.106C285.535 105.057 283.462 108.625 279.318 110.698C275.174 112.885 268.842 113.921 260.208 113.921C247.314 113.921 238.335 111.043 233.269 105.057C228.204 99.0702 225.786 88.5941 225.786 73.6283C225.786 66.0302 226.247 59.8137 227.283 54.8634C228.319 49.9132 230.161 45.7688 232.809 42.3151C235.457 38.9766 239.025 36.559 243.515 35.0624C247.89 33.681 253.646 32.8751 260.553 32.8751C268.497 32.8751 276.095 33.681 283.462 35.1776L282.426 43.121C274.368 41.8546 268.036 41.1639 263.316 41.1639C257.56 41.1639 252.955 41.7395 249.271 42.8907C245.587 44.0419 242.824 45.7688 240.752 48.3015C238.68 50.8341 237.298 53.8273 236.608 57.281C235.917 60.7346 235.572 64.9941 235.572 70.2898V76.9668C235.572 87.558 237.298 94.9259 240.752 99.3005C244.206 103.675 250.653 105.862 260.093 105.862C265.388 105.862 269.533 105.287 272.296 104.02C275.058 102.869 276.44 100.682 276.44 97.6888V70.7502H285.535ZM337.223 114.266C330.086 114.266 324.33 113.576 319.955 112.079C315.465 110.698 311.897 108.28 309.364 104.826C306.716 101.373 304.874 97.2283 303.953 92.3932C303.032 87.558 302.572 81.2263 302.572 73.5132C302.572 65.9151 303.032 59.6985 303.953 54.8634C304.874 50.0283 306.716 45.7688 309.364 42.3151C311.897 38.8615 315.465 36.4439 319.955 34.9473C324.33 33.4507 330.086 32.6449 337.223 32.6449C344.246 32.6449 350.002 33.4507 354.492 34.9473C358.866 36.4439 362.435 38.8615 365.083 42.3151C367.616 45.7688 369.458 50.0283 370.379 54.8634C371.3 59.6985 371.875 65.9151 371.875 73.5132C371.875 81.2263 371.3 87.558 370.379 92.3932C369.458 97.2283 367.616 101.373 365.083 104.826C362.435 108.28 358.866 110.698 354.492 112.079C350.002 113.576 344.246 114.266 337.223 114.266ZM336.763 40.8185C327.208 40.8185 320.761 43.121 317.538 47.7259C314.199 52.3307 312.587 60.3893 312.587 71.7863V75.1249C312.587 86.8673 314.199 95.041 317.538 99.4156C320.761 103.905 327.323 106.093 337.223 106.093C347.009 106.093 353.571 103.905 356.909 99.4156C360.248 95.041 361.975 86.8673 361.975 75.1249V71.7863C361.975 59.9288 360.248 51.7551 356.794 47.3805C353.341 43.0059 346.663 40.8185 336.763 40.8185ZM400.474 33.1054C403.352 33.1054 405.654 33.7961 407.381 34.9473C408.993 36.2137 410.605 38.2858 412.216 41.1639L440.536 101.488C441.227 103.1 441.803 104.136 442.263 104.596C442.609 105.057 443.184 105.287 443.875 105.287C445.256 105.287 445.947 103.905 445.947 100.912V34.1415H454.812V103.79C454.812 106.899 453.775 109.431 451.933 111.273C450.092 113.115 447.559 114.036 444.335 114.036C441.342 114.036 438.925 113.46 437.313 112.194C435.586 111.043 434.09 108.971 432.708 105.978L404.388 45.6537C403.582 44.1571 403.007 43.121 402.546 42.6605C402.086 42.2 401.625 41.8546 400.934 41.8546C399.553 41.8546 398.862 43.3512 398.862 46.2293V113H389.998V43.3512C389.998 40.358 390.919 37.8254 392.761 35.9834C394.603 34.1415 397.251 33.1054 400.474 33.1054Z"/>
</mask>
<path d="M39.0099 113H29.5699V41.8546H4.70357V34.0263H64.567V41.8546H39.0099V113ZM125.225 113L118.088 91.4722H81.1338L74.1113 113H64.2108L86.6596 44.2722C87.926 40.2429 89.5377 37.48 91.4947 35.8683C93.4518 34.3717 96.0996 33.5658 99.5533 33.5658C102.892 33.5658 105.54 34.3717 107.497 35.8683C109.454 37.48 111.065 40.2429 112.447 44.2722L135.126 113H125.225ZM94.7181 47.6107L83.0908 83.6439H116.131L104.504 47.6107C103.122 43.6966 101.51 41.7395 99.6684 41.7395C98.5172 41.7395 97.4811 42.2 96.7903 43.121C96.0996 44.0419 95.4089 45.5385 94.7181 47.6107ZM166.033 34.0263H182.495C199.878 34.0263 208.628 42.3151 208.628 58.6624C208.628 70.6351 202.411 78.118 189.978 81.1112L211.045 113H200.454L180.883 82.3776C178.12 82.3776 171.904 82.0322 162.234 81.2263V113H153.024V47.7259C153.024 43.0059 153.83 39.5522 155.672 37.3649C157.514 35.1776 160.967 34.0263 166.033 34.0263ZM181.804 41.5093H167.644C163.96 41.5093 162.234 43.2361 162.234 46.5746V73.5132C169.832 74.4341 175.588 74.7795 179.502 74.7795C192.626 74.7795 199.188 69.7141 199.188 59.5834V57.8566C199.188 47.0351 193.317 41.5093 181.804 41.5093ZM285.535 70.7502V100.106C285.535 105.057 283.462 108.625 279.318 110.698C275.174 112.885 268.842 113.921 260.208 113.921C247.314 113.921 238.335 111.043 233.269 105.057C228.204 99.0702 225.786 88.5941 225.786 73.6283C225.786 66.0302 226.247 59.8137 227.283 54.8634C228.319 49.9132 230.161 45.7688 232.809 42.3151C235.457 38.9766 239.025 36.559 243.515 35.0624C247.89 33.681 253.646 32.8751 260.553 32.8751C268.497 32.8751 276.095 33.681 283.462 35.1776L282.426 43.121C274.368 41.8546 268.036 41.1639 263.316 41.1639C257.56 41.1639 252.955 41.7395 249.271 42.8907C245.587 44.0419 242.824 45.7688 240.752 48.3015C238.68 50.8341 237.298 53.8273 236.608 57.281C235.917 60.7346 235.572 64.9941 235.572 70.2898V76.9668C235.572 87.558 237.298 94.9259 240.752 99.3005C244.206 103.675 250.653 105.862 260.093 105.862C265.388 105.862 269.533 105.287 272.296 104.02C275.058 102.869 276.44 100.682 276.44 97.6888V70.7502H285.535ZM337.223 114.266C330.086 114.266 324.33 113.576 319.955 112.079C315.465 110.698 311.897 108.28 309.364 104.826C306.716 101.373 304.874 97.2283 303.953 92.3932C303.032 87.558 302.572 81.2263 302.572 73.5132C302.572 65.9151 303.032 59.6985 303.953 54.8634C304.874 50.0283 306.716 45.7688 309.364 42.3151C311.897 38.8615 315.465 36.4439 319.955 34.9473C324.33 33.4507 330.086 32.6449 337.223 32.6449C344.246 32.6449 350.002 33.4507 354.492 34.9473C358.866 36.4439 362.435 38.8615 365.083 42.3151C367.616 45.7688 369.458 50.0283 370.379 54.8634C371.3 59.6985 371.875 65.9151 371.875 73.5132C371.875 81.2263 371.3 87.558 370.379 92.3932C369.458 97.2283 367.616 101.373 365.083 104.826C362.435 108.28 358.866 110.698 354.492 112.079C350.002 113.576 344.246 114.266 337.223 114.266ZM336.763 40.8185C327.208 40.8185 320.761 43.121 317.538 47.7259C314.199 52.3307 312.587 60.3893 312.587 71.7863V75.1249C312.587 86.8673 314.199 95.041 317.538 99.4156C320.761 103.905 327.323 106.093 337.223 106.093C347.009 106.093 353.571 103.905 356.909 99.4156C360.248 95.041 361.975 86.8673 361.975 75.1249V71.7863C361.975 59.9288 360.248 51.7551 356.794 47.3805C353.341 43.0059 346.663 40.8185 336.763 40.8185ZM400.474 33.1054C403.352 33.1054 405.654 33.7961 407.381 34.9473C408.993 36.2137 410.605 38.2858 412.216 41.1639L440.536 101.488C441.227 103.1 441.803 104.136 442.263 104.596C442.609 105.057 443.184 105.287 443.875 105.287C445.256 105.287 445.947 103.905 445.947 100.912V34.1415H454.812V103.79C454.812 106.899 453.775 109.431 451.933 111.273C450.092 113.115 447.559 114.036 444.335 114.036C441.342 114.036 438.925 113.46 437.313 112.194C435.586 111.043 434.09 108.971 432.708 105.978L404.388 45.6537C403.582 44.1571 403.007 43.121 402.546 42.6605C402.086 42.2 401.625 41.8546 400.934 41.8546C399.553 41.8546 398.862 43.3512 398.862 46.2293V113H389.998V43.3512C389.998 40.358 390.919 37.8254 392.761 35.9834C394.603 34.1415 397.251 33.1054 400.474 33.1054Z" fill="#C6E3FF"/>
<path d="M39.0099 113V117.704H43.7135V113H39.0099ZM29.5699 113H24.8663V117.704H29.5699V113ZM29.5699 41.8546H34.2735V37.151H29.5699V41.8546ZM4.70357 41.8546H-4.19617e-05V46.5583H4.70357V41.8546ZM4.70357 34.0263V29.3227H-4.19617e-05V34.0263H4.70357ZM64.567 34.0263H69.2706V29.3227H64.567V34.0263ZM64.567 41.8546V46.5583H69.2706V41.8546H64.567ZM39.0099 41.8546V37.151H34.3063V41.8546H39.0099ZM39.0099 113V108.296H29.5699V113V117.704H39.0099V113ZM29.5699 113H34.2735V41.8546H29.5699H24.8663V113H29.5699ZM29.5699 41.8546V37.151H4.70357V41.8546V46.5583H29.5699V41.8546ZM4.70357 41.8546H9.40719V34.0263H4.70357H-4.19617e-05V41.8546H4.70357ZM4.70357 34.0263V38.73H64.567V34.0263V29.3227H4.70357V34.0263ZM64.567 34.0263H59.8634V41.8546H64.567H69.2706V34.0263H64.567ZM64.567 41.8546V37.151H39.0099V41.8546V46.5583H64.567V41.8546ZM39.0099 41.8546H34.3063V113H39.0099H43.7135V41.8546H39.0099ZM125.225 113L120.761 114.48L121.83 117.704H125.225V113ZM118.088 91.4722L122.553 89.9919L121.484 86.7686H118.088V91.4722ZM81.1338 91.4722V86.7686H77.7206L76.662 90.0135L81.1338 91.4722ZM74.1113 113V117.704H77.5245L78.583 114.459L74.1113 113ZM64.2108 113L59.7397 111.54L57.7263 117.704H64.2108V113ZM86.6596 44.2722L91.1308 45.7326L91.1389 45.7076L91.1468 45.6825L86.6596 44.2722ZM91.4947 35.8683L88.6375 32.1319L88.5701 32.1835L88.5046 32.2374L91.4947 35.8683ZM107.497 35.8683L110.487 32.2374L110.421 32.1835L110.354 32.1319L107.497 35.8683ZM112.447 44.2722L116.914 42.7983L116.905 42.7724L116.896 42.7467L112.447 44.2722ZM135.126 113V117.704H141.631L139.593 111.526L135.126 113ZM94.7181 47.6107L90.2559 46.1233L90.2487 46.1448L90.2418 46.1663L94.7181 47.6107ZM83.0908 83.6439L78.6145 82.1995L76.6306 88.3475H83.0908V83.6439ZM116.131 83.6439V88.3475H122.591L120.607 82.1995L116.131 83.6439ZM104.504 47.6107L108.98 46.1663L108.96 46.1055L108.939 46.0453L104.504 47.6107ZM96.7903 43.121L93.0275 40.2988L93.0274 40.2988L96.7903 43.121ZM125.225 113L129.69 111.52L122.553 89.9919L118.088 91.4722L113.623 92.9524L120.761 114.48L125.225 113ZM118.088 91.4722V86.7686H81.1338V91.4722V96.1758H118.088V91.4722ZM81.1338 91.4722L76.662 90.0135L69.6396 111.541L74.1113 113L78.583 114.459L85.6055 92.9309L81.1338 91.4722ZM74.1113 113V108.296H64.2108V113V117.704H74.1113V113ZM64.2108 113L68.682 114.46L91.1308 45.7326L86.6596 44.2722L82.1885 42.8118L59.7397 111.54L64.2108 113ZM86.6596 44.2722L91.1468 45.6825C92.2923 42.0378 93.5415 40.276 94.4849 39.4992L91.4947 35.8683L88.5046 32.2374C85.5338 34.684 83.5596 38.4481 82.1724 42.8619L86.6596 44.2722ZM91.4947 35.8683L94.3519 39.6046C95.2729 38.9004 96.8232 38.2695 99.5533 38.2695V33.5658V28.8622C95.376 28.8622 91.6307 29.843 88.6375 32.1319L91.4947 35.8683ZM99.5533 33.5658V38.2695C102.147 38.2695 103.705 38.8901 104.639 39.6046L107.497 35.8683L110.354 32.1319C107.374 29.8533 103.637 28.8622 99.5533 28.8622V33.5658ZM107.497 35.8683L104.507 39.4992C105.465 40.2889 106.719 42.0699 107.998 45.7977L112.447 44.2722L116.896 42.7467C115.411 38.4159 113.442 34.6711 110.487 32.2374L107.497 35.8683ZM112.447 44.2722L107.98 45.7461L130.659 114.474L135.126 113L139.593 111.526L116.914 42.7983L112.447 44.2722ZM135.126 113V108.296H125.225V113V117.704H135.126V113ZM94.7181 47.6107L90.2418 46.1663L78.6145 82.1995L83.0908 83.6439L87.5672 85.0883L99.1945 49.0552L94.7181 47.6107ZM83.0908 83.6439V88.3475H116.131V83.6439V78.9403H83.0908V83.6439ZM116.131 83.6439L120.607 82.1995L108.98 46.1663L104.504 47.6107L100.027 49.0552L111.654 85.0883L116.131 83.6439ZM104.504 47.6107L108.939 46.0453C108.167 43.8569 107.196 41.8043 105.889 40.2172C104.545 38.5843 102.471 37.0359 99.6684 37.0359V41.7395V46.4431C98.7078 46.4431 98.3608 45.8733 98.6278 46.1974C98.9325 46.5674 99.4589 47.4504 100.068 49.1762L104.504 47.6107ZM99.6684 41.7395V37.0359C97.2075 37.0359 94.7042 38.0631 93.0275 40.2988L96.7903 43.121L100.553 45.9432C100.435 46.1003 100.262 46.2457 100.059 46.3408C99.8668 46.4314 99.7212 46.4431 99.6684 46.4431V41.7395ZM96.7903 43.121L93.0274 40.2988C91.8716 41.8399 90.99 43.9209 90.2559 46.1233L94.7181 47.6107L99.1804 49.0981C99.8277 47.1562 100.328 46.244 100.553 45.9431L96.7903 43.121ZM189.978 81.1112L188.877 76.5383L182.357 78.108L186.053 83.7039L189.978 81.1112ZM211.045 113V117.704H219.79L214.97 110.407L211.045 113ZM200.454 113L196.491 115.533L197.878 117.704H200.454V113ZM180.883 82.3776L184.847 79.8446L183.459 77.6739H180.883V82.3776ZM162.234 81.2263L162.624 76.539L157.53 76.1144V81.2263H162.234ZM162.234 113V117.704H166.937V113H162.234ZM153.024 113H148.32V117.704H153.024V113ZM155.672 37.3649L159.269 40.3946L159.269 40.3946L155.672 37.3649ZM162.234 73.5132H157.53V77.6811L161.668 78.1826L162.234 73.5132ZM166.033 34.0263V38.73H182.495V34.0263V29.3227H166.033V34.0263ZM182.495 34.0263V38.73C190.515 38.73 195.685 40.646 198.852 43.6347C201.968 46.576 203.924 51.2982 203.924 58.6624H208.628H213.331C213.331 49.6794 210.913 42.0835 205.309 36.7936C199.755 31.551 191.858 29.3227 182.495 29.3227V34.0263ZM208.628 58.6624H203.924C203.924 63.8127 202.603 67.533 200.347 70.2484C198.065 72.9961 194.417 75.2046 188.877 76.5383L189.978 81.1112L191.079 85.6842C197.972 84.0247 203.649 80.9951 207.583 76.2598C211.544 71.4923 213.331 65.4849 213.331 58.6624H208.628ZM189.978 81.1112L186.053 83.7039L207.121 115.593L211.045 113L214.97 110.407L193.902 78.5185L189.978 81.1112ZM211.045 113V108.296H200.454V113V117.704H211.045V113ZM200.454 113L204.417 110.467L184.847 79.8446L180.883 82.3776L176.92 84.9105L196.491 115.533L200.454 113ZM180.883 82.3776V77.6739C178.341 77.6739 172.306 77.3458 162.624 76.539L162.234 81.2263L161.843 85.9137C171.501 86.7186 177.9 87.0812 180.883 87.0812V82.3776ZM162.234 81.2263H157.53V113H162.234H166.937V81.2263H162.234ZM162.234 113V108.296H153.024V113V117.704H162.234V113ZM153.024 113H157.727V47.7259H153.024H148.32V113H153.024ZM153.024 47.7259H157.727C157.727 43.3144 158.527 41.2759 159.269 40.3946L155.672 37.3649L152.074 34.3351C149.132 37.8285 148.32 42.6973 148.32 47.7259H153.024ZM155.672 37.3649L159.269 40.3946C159.749 39.8249 161.409 38.73 166.033 38.73V34.0263V29.3227C160.525 29.3227 155.278 30.5302 152.074 34.3351L155.672 37.3649ZM181.804 41.5093V36.8056H167.644V41.5093V46.2129H181.804V41.5093ZM167.644 41.5093V36.8056C165.151 36.8056 162.415 37.3841 160.315 39.3826C158.17 41.4239 157.53 44.1383 157.53 46.5746H162.234H166.937C166.937 46.1313 166.996 45.941 167.004 45.919C167.006 45.9127 166.994 45.9474 166.957 46.0065C166.919 46.0673 166.866 46.1344 166.8 46.1974C166.656 46.3345 166.562 46.3477 166.657 46.3178C166.773 46.2814 167.075 46.2129 167.644 46.2129V41.5093ZM162.234 46.5746H157.53V73.5132H162.234H166.937V46.5746H162.234ZM162.234 73.5132L161.668 78.1826C169.389 79.1185 175.343 79.4831 179.502 79.4831V74.7795V70.0759C175.832 70.0759 170.274 69.7498 162.8 68.8437L162.234 73.5132ZM179.502 74.7795V79.4831C186.538 79.4831 192.679 78.1479 197.14 74.7038C201.833 71.0815 203.891 65.7464 203.891 59.5834H199.188H194.484C194.484 63.5511 193.262 65.8141 191.392 67.2571C189.292 68.8785 185.59 70.0759 179.502 70.0759V74.7795ZM199.188 59.5834H203.891V57.8566H199.188H194.484V59.5834H199.188ZM199.188 57.8566H203.891C203.891 51.6193 202.183 46.0998 198.036 42.1987C193.941 38.3468 188.239 36.8056 181.804 36.8056V41.5093V46.2129C186.881 46.2129 189.872 47.4346 191.59 49.051C193.257 50.6183 194.484 53.2724 194.484 57.8566H199.188ZM285.535 70.7502H290.238V66.0466H285.535V70.7502ZM279.318 110.698L277.214 106.491L277.168 106.514L277.123 106.538L279.318 110.698ZM233.269 105.057L236.86 102.018V102.018L233.269 105.057ZM227.283 54.8634L231.887 55.827V55.827L227.283 54.8634ZM232.809 42.3151L229.123 39.3923L229.099 39.4226L229.076 39.4533L232.809 42.3151ZM243.515 35.0624L242.099 30.5771L242.063 30.5884L242.028 30.6002L243.515 35.0624ZM283.462 35.1776L288.126 35.7859L288.693 31.4404L284.399 30.5681L283.462 35.1776ZM282.426 43.121L281.696 47.7676L286.466 48.5171L287.09 43.7293L282.426 43.121ZM249.271 42.8907L247.868 38.4012V38.4012L249.271 42.8907ZM240.752 48.3015L237.112 45.323V45.323L240.752 48.3015ZM236.608 57.281L231.995 56.3585V56.3585L236.608 57.281ZM272.296 104.02L270.486 99.6787L270.411 99.7103L270.336 99.7446L272.296 104.02ZM276.44 70.7502V66.0466H271.736V70.7502H276.44ZM285.535 70.7502H280.831V100.106H285.535H290.238V70.7502H285.535ZM285.535 100.106H280.831C280.831 101.922 280.455 103.194 279.921 104.105C279.4 104.996 278.572 105.812 277.214 106.491L279.318 110.698L281.422 114.905C284.208 113.511 286.489 111.507 288.04 108.857C289.578 106.229 290.238 103.241 290.238 100.106H285.535ZM279.318 110.698L277.123 106.538C274.026 108.172 268.65 109.217 260.208 109.217V113.921V118.625C269.033 118.625 276.321 117.598 281.513 114.857L279.318 110.698ZM260.208 113.921V109.217C247.778 109.217 240.572 106.405 236.86 102.018L233.269 105.057L229.679 108.095C236.097 115.681 246.851 118.625 260.208 118.625V113.921ZM233.269 105.057L236.86 102.018C232.942 97.3885 230.49 88.4046 230.49 73.6283H225.786H221.083C221.083 88.7837 223.465 100.752 229.679 108.095L233.269 105.057ZM225.786 73.6283H230.49C230.49 66.1775 230.945 60.3248 231.887 55.827L227.283 54.8634L222.679 53.8998C221.548 59.3025 221.083 65.8829 221.083 73.6283H225.786ZM227.283 54.8634L231.887 55.827C232.798 51.4723 234.378 47.9993 236.542 45.177L232.809 42.3151L229.076 39.4533C225.944 43.5383 223.84 48.354 222.679 53.8998L227.283 54.8634ZM232.809 42.3151L236.494 45.2379C238.512 42.6929 241.28 40.7655 245.002 39.5247L243.515 35.0624L242.028 30.6002C236.771 32.3525 232.401 35.2602 229.123 39.3923L232.809 42.3151ZM243.515 35.0624L244.931 39.5477C248.722 38.3506 253.974 37.5787 260.553 37.5787V32.8751V28.1715C253.318 28.1715 247.057 29.0113 242.099 30.5771L243.515 35.0624ZM260.553 32.8751V37.5787C268.174 37.5787 275.458 38.3514 282.526 39.787L283.462 35.1776L284.399 30.5681C276.731 29.0106 268.819 28.1715 260.553 28.1715V32.8751ZM283.462 35.1776L278.798 34.5692L277.762 42.5126L282.426 43.121L287.09 43.7293L288.126 35.7859L283.462 35.1776ZM282.426 43.121L283.156 38.4744C275.043 37.1994 268.416 36.4603 263.316 36.4603V41.1639V45.8675C267.656 45.8675 273.693 46.5099 281.696 47.7676L282.426 43.121ZM263.316 41.1639V36.4603C257.283 36.4603 252.163 37.059 247.868 38.4012L249.271 42.8907L250.674 47.3802C253.747 46.42 257.837 45.8675 263.316 45.8675V41.1639ZM249.271 42.8907L247.868 38.4012C243.503 39.7654 239.884 41.9349 237.112 45.323L240.752 48.3015L244.393 51.28C245.765 49.6027 247.672 48.3185 250.674 47.3802L249.271 42.8907ZM240.752 48.3015L237.112 45.323C234.516 48.4961 232.825 52.2094 231.995 56.3585L236.608 57.281L241.22 58.2034C241.772 55.4452 242.844 53.1722 244.393 51.28L240.752 48.3015ZM236.608 57.281L231.995 56.3585C231.223 60.2214 230.868 64.8146 230.868 70.2898H235.572H240.275C240.275 65.1737 240.611 61.2479 241.22 58.2034L236.608 57.281ZM235.572 70.2898H230.868V76.9668H235.572H240.275V70.2898H235.572ZM235.572 76.9668H230.868C230.868 87.809 232.584 96.5445 237.06 102.215L240.752 99.3005L244.444 96.3859C242.013 93.3072 240.275 87.3071 240.275 76.9668H235.572ZM240.752 99.3005L237.06 102.215C241.872 108.31 250.187 110.566 260.093 110.566V105.862V101.159C251.118 101.159 246.539 99.0402 244.444 96.3859L240.752 99.3005ZM260.093 105.862V110.566C265.56 110.566 270.543 109.998 274.255 108.296L272.296 104.02L270.336 99.7446C268.523 100.576 265.216 101.159 260.093 101.159V105.862ZM272.296 104.02L274.105 108.362C276.229 107.477 278.07 106.079 279.35 104.105C280.623 102.143 281.144 99.9183 281.144 97.6888H276.44H271.736C271.736 98.4524 271.566 98.818 271.458 98.9857C271.356 99.1419 271.125 99.4127 270.486 99.6787L272.296 104.02ZM276.44 97.6888H281.144V70.7502H276.44H271.736V97.6888H276.44ZM276.44 70.7502V75.4539H285.535V70.7502V66.0466H276.44V70.7502ZM319.955 112.079L321.478 107.629L321.408 107.605L321.338 107.583L319.955 112.079ZM309.364 104.826L313.157 102.045L313.127 102.004L313.097 101.965L309.364 104.826ZM303.953 92.3932L299.333 93.2733V93.2733L303.953 92.3932ZM303.953 54.8634L308.574 55.7435V55.7435L303.953 54.8634ZM309.364 42.3151L313.097 45.177L313.127 45.1371L313.157 45.0967L309.364 42.3151ZM319.955 34.9473L321.443 39.4096L321.46 39.4037L321.478 39.3977L319.955 34.9473ZM354.492 34.9473L356.014 30.4969L355.997 30.4909L355.979 30.4851L354.492 34.9473ZM365.083 42.3151L368.876 39.5336L368.846 39.4931L368.816 39.4533L365.083 42.3151ZM370.379 54.8634L374.999 53.9833V53.9833L370.379 54.8634ZM370.379 92.3932L374.999 93.2733V93.2733L370.379 92.3932ZM365.083 104.826L368.816 107.688L368.846 107.648L368.876 107.608L365.083 104.826ZM354.492 112.079L353.075 107.594L353.04 107.605L353.004 107.617L354.492 112.079ZM317.538 47.7259L321.346 50.4867L321.369 50.4551L321.391 50.4232L317.538 47.7259ZM317.538 99.4156L321.358 96.6724L321.318 96.6166L321.277 96.562L317.538 99.4156ZM356.909 99.4156L353.17 96.562L353.152 96.5854L353.135 96.6089L356.909 99.4156ZM356.794 47.3805L360.486 44.4659V44.4659L356.794 47.3805ZM337.223 114.266V109.563C330.315 109.563 325.148 108.884 321.478 107.629L319.955 112.079L318.433 116.529C323.511 118.267 329.856 118.97 337.223 118.97V114.266ZM319.955 112.079L321.338 107.583C317.691 106.461 315.019 104.584 313.157 102.045L309.364 104.826L305.571 107.608C308.774 111.976 313.24 114.934 318.572 116.575L319.955 112.079ZM309.364 104.826L313.097 101.965C310.929 99.137 309.368 95.6838 308.574 91.5131L303.953 92.3932L299.333 93.2733C300.38 98.7728 302.503 103.608 305.631 107.688L309.364 104.826ZM303.953 92.3932L308.574 91.5131C307.73 87.0844 307.275 81.0794 307.275 73.5132H302.572H297.868C297.868 81.3733 298.334 88.0317 299.333 93.2733L303.953 92.3932ZM302.572 73.5132H307.275C307.275 66.0698 307.729 60.1771 308.574 55.7435L303.953 54.8634L299.333 53.9833C298.335 59.22 297.868 65.7604 297.868 73.5132H302.572ZM303.953 54.8634L308.574 55.7435C309.375 51.5394 310.948 47.9799 313.097 45.177L309.364 42.3151L305.631 39.4533C302.484 43.5577 300.374 48.5172 299.333 53.9833L303.953 54.8634ZM309.364 42.3151L313.157 45.0967C315.019 42.5569 317.713 40.6527 321.443 39.4096L319.955 34.9473L318.468 30.4851C313.218 32.2351 308.774 35.166 305.571 39.5336L309.364 42.3151ZM319.955 34.9473L321.478 39.3977C325.195 38.126 330.391 37.3485 337.223 37.3485V32.6449V27.9413C329.78 27.9413 323.465 28.7755 318.433 30.4969L319.955 34.9473ZM337.223 32.6449V37.3485C343.924 37.3485 349.142 38.122 353.004 39.4096L354.492 34.9473L355.979 30.4851C350.862 28.7794 344.568 27.9413 337.223 27.9413V32.6449ZM354.492 34.9473L352.969 39.3977C356.585 40.6346 359.338 42.5522 361.35 45.1769L365.083 42.3151L368.816 39.4533C365.532 35.1707 361.148 32.2533 356.014 30.4969L354.492 34.9473ZM365.083 42.3151L361.29 45.0967C363.376 47.9407 364.957 51.5385 365.758 55.7435L370.379 54.8634L374.999 53.9833C373.958 48.518 371.856 43.5968 368.876 39.5336L365.083 42.3151ZM370.379 54.8634L365.758 55.7435C366.612 60.2246 367.172 66.1373 367.172 73.5132H371.875H376.579C376.579 65.6929 375.988 59.1725 374.999 53.9833L370.379 54.8634ZM371.875 73.5132H367.172C367.172 81.0121 366.61 87.0381 365.758 91.5131L370.379 92.3932L374.999 93.2733C375.989 88.0779 376.579 81.4405 376.579 73.5132H371.875ZM370.379 92.3932L365.758 91.5131C364.963 95.6857 363.394 99.1756 361.29 102.045L365.083 104.826L368.876 107.608C371.837 103.57 373.952 98.7709 374.999 93.2733L370.379 92.3932ZM365.083 104.826L361.35 101.965C359.337 104.59 356.607 106.478 353.075 107.594L354.492 112.079L355.908 116.564C361.126 114.917 365.533 111.97 368.816 107.688L365.083 104.826ZM354.492 112.079L353.004 107.617C349.189 108.888 343.998 109.563 337.223 109.563V114.266V118.97C344.493 118.97 350.814 118.263 355.979 116.541L354.492 112.079ZM336.763 40.8185V36.1149C326.753 36.1149 318.264 38.4853 313.684 45.0285L317.538 47.7259L321.391 50.4232C323.258 47.7566 327.662 45.5222 336.763 45.5222V40.8185ZM317.538 47.7259L313.729 44.965C309.451 50.8667 307.884 60.2629 307.884 71.7863H312.587H317.291C317.291 60.5156 318.947 53.7948 321.346 50.4867L317.538 47.7259ZM312.587 71.7863H307.884V75.1249H312.587H317.291V71.7863H312.587ZM312.587 75.1249H307.884C307.884 81.1844 308.297 86.4984 309.2 90.9651C310.094 95.3862 311.529 99.2952 313.798 102.269L317.538 99.4156L321.277 96.562C320.208 95.1614 319.168 92.7962 318.421 89.1013C317.683 85.4519 317.291 80.8078 317.291 75.1249H312.587ZM317.538 99.4156L313.717 102.159C318.343 108.603 327.001 110.796 337.223 110.796V106.093V101.389C327.645 101.389 323.179 99.2077 321.358 96.6724L317.538 99.4156ZM337.223 106.093V110.796C347.38 110.796 355.955 108.582 360.684 102.222L356.909 99.4156L353.135 96.6089C351.187 99.2288 346.638 101.389 337.223 101.389V106.093ZM356.909 99.4156L360.648 102.269C362.903 99.3146 364.371 95.4255 365.298 90.9964C366.234 86.5241 366.678 81.2021 366.678 75.1249H361.975H357.271C357.271 80.7901 356.852 85.4261 356.09 89.0699C355.319 92.7569 354.254 95.142 353.17 96.562L356.909 99.4156ZM361.975 75.1249H366.678V71.7863H361.975H357.271V75.1249H361.975ZM361.975 71.7863H366.678C366.678 65.6559 366.234 60.2985 365.281 55.8018C364.336 51.3449 362.829 47.4333 360.486 44.4659L356.794 47.3805L353.102 50.295C354.213 51.7023 355.296 54.0648 356.078 57.7529C356.852 61.401 357.271 66.0592 357.271 71.7863H361.975ZM356.794 47.3805L360.486 44.4659C355.641 38.3292 347.037 36.1149 336.763 36.1149V40.8185V45.5222C346.29 45.5222 351.04 47.6825 353.102 50.2951L356.794 47.3805ZM407.381 34.9473L410.287 31.2488L410.143 31.1354L409.99 31.0337L407.381 34.9473ZM412.216 41.1639L416.474 39.165L416.403 39.0126L416.32 38.8657L412.216 41.1639ZM440.536 101.488L444.86 99.635L444.828 99.5614L444.794 99.4889L440.536 101.488ZM442.263 104.596L446.026 101.774L445.826 101.507L445.589 101.27L442.263 104.596ZM445.947 34.1415V29.4378H441.243V34.1415H445.947ZM454.812 34.1415H459.515V29.4378H454.812V34.1415ZM451.933 111.273L448.608 107.947V107.947L451.933 111.273ZM437.313 112.194L440.219 108.496L440.075 108.382L439.922 108.281L437.313 112.194ZM432.708 105.978L436.979 104.006L436.972 103.993L436.966 103.979L432.708 105.978ZM404.388 45.6537L408.646 43.6548L408.591 43.5376L408.53 43.4237L404.388 45.6537ZM402.546 42.6605L399.22 45.9864L399.22 45.9865L402.546 42.6605ZM398.862 113V117.704H403.566V113H398.862ZM389.998 113H385.294V117.704H389.998V113ZM392.761 35.9834L396.087 39.3094V39.3094L392.761 35.9834ZM400.474 33.1054V37.809C402.598 37.809 403.952 38.3141 404.772 38.861L407.381 34.9473L409.99 31.0337C407.357 29.2781 404.106 28.4018 400.474 28.4018V33.1054ZM407.381 34.9473L404.475 38.6459C405.392 39.3663 406.641 40.8349 408.112 43.4621L412.216 41.1639L416.32 38.8657C414.568 35.7368 412.594 33.061 410.287 31.2488L407.381 34.9473ZM412.216 41.1639L407.959 43.1628L436.279 103.487L440.536 101.488L444.794 99.4889L416.474 39.165L412.216 41.1639ZM440.536 101.488L436.213 103.341C436.595 104.231 436.982 105.051 437.374 105.758C437.731 106.4 438.242 107.227 438.937 107.922L442.263 104.596L445.589 101.27C445.735 101.416 445.79 101.504 445.764 101.465C445.743 101.437 445.688 101.351 445.598 101.189C445.415 100.86 445.169 100.356 444.86 99.635L440.536 101.488ZM442.263 104.596L438.5 107.418C439.99 109.404 442.19 109.99 443.875 109.99V105.287V100.583C444.179 100.583 445.227 100.709 446.026 101.774L442.263 104.596ZM443.875 105.287V109.99C445.045 109.99 446.295 109.684 447.428 108.913C448.528 108.164 449.229 107.174 449.669 106.257C450.481 104.567 450.651 102.61 450.651 100.912H445.947H441.243C441.243 101.493 441.209 101.886 441.171 102.13C441.13 102.388 441.103 102.365 441.189 102.187C441.283 101.989 441.553 101.532 442.135 101.136C442.75 100.717 443.396 100.583 443.875 100.583V105.287ZM445.947 100.912H450.651V34.1415H445.947H441.243V100.912H445.947ZM445.947 34.1415V38.8451H454.812V34.1415V29.4378H445.947V34.1415ZM454.812 34.1415H450.108V103.79H454.812H459.515V34.1415H454.812ZM454.812 103.79H450.108C450.108 105.791 449.473 107.082 448.608 107.947L451.933 111.273L455.259 114.599C458.078 111.781 459.515 108.006 459.515 103.79H454.812ZM451.933 111.273L448.608 107.947C447.847 108.707 446.625 109.332 444.335 109.332V114.036V118.74C448.492 118.74 452.336 117.523 455.259 114.599L451.933 111.273ZM444.335 114.036V109.332C441.786 109.332 440.624 108.814 440.219 108.496L437.313 112.194L434.407 115.893C437.225 118.107 440.899 118.74 444.335 118.74V114.036ZM437.313 112.194L439.922 108.281C439.262 107.841 438.221 106.699 436.979 104.006L432.708 105.978L428.437 107.949C429.958 111.243 431.91 114.245 434.704 116.108L437.313 112.194ZM432.708 105.978L436.966 103.979L408.646 43.6548L404.388 45.6537L400.13 47.6525L428.45 107.976L432.708 105.978ZM404.388 45.6537L408.53 43.4237C408.133 42.6868 407.738 41.96 407.371 41.3485C407.05 40.8134 406.542 40.0047 405.872 39.3345L402.546 42.6605L399.22 45.9865C399.079 45.8455 399.03 45.7653 399.077 45.8318C399.116 45.886 399.189 45.9963 399.304 46.1885C399.542 46.5844 399.838 47.1239 400.247 47.8836L404.388 45.6537ZM402.546 42.6605L405.872 39.3345C405.153 38.6156 403.54 37.151 400.934 37.151V41.8546V46.5583C400.426 46.5583 399.933 46.4135 399.542 46.1966C399.232 46.024 399.097 45.8636 399.22 45.9864L402.546 42.6605ZM400.934 41.8546V37.151C399.686 37.151 398.41 37.5077 397.291 38.3078C396.219 39.0745 395.545 40.0655 395.124 40.9599C394.337 42.634 394.159 44.5579 394.159 46.2293H398.862H403.566C403.566 45.6862 403.599 45.3086 403.637 45.0675C403.678 44.8128 403.707 44.8143 403.636 44.9655C403.561 45.126 403.318 45.563 402.764 45.9591C402.164 46.3886 401.492 46.5583 400.934 46.5583V41.8546ZM398.862 46.2293H394.159V113H398.862H403.566V46.2293H398.862ZM398.862 113V108.296H389.998V113V117.704H398.862V113ZM389.998 113H394.701V43.3512H389.998H385.294V113H389.998ZM389.998 43.3512H394.701C394.701 41.347 395.294 40.1019 396.087 39.3094L392.761 35.9834L389.435 32.6575C386.543 35.5489 385.294 39.369 385.294 43.3512H389.998ZM392.761 35.9834L396.087 39.3094C396.901 38.4949 398.276 37.809 400.474 37.809V33.1054V28.4018C396.225 28.4018 392.304 29.788 389.435 32.6575L392.761 35.9834Z" fill="#C6E3FF" mask="url(#path-1-outside-1_5123_1733)"/>
</svg>
