<svg width="22" height="22" viewBox="0 0 22 22" fill="none" xmlns="http://www.w3.org/2000/svg">
<path fill-rule="evenodd" clip-rule="evenodd" d="M11 0.4375C5.16625 0.4375 0.4375 5.16625 0.4375 11C0.4375 16.8338 5.16625 21.5625 11 21.5625C16.8338 21.5625 21.5625 16.8338 21.5625 11C21.5625 5.16625 16.8338 0.4375 11 0.4375ZM11.5742 6.36333C11.4218 6.21118 11.2153 6.12572 11 6.12572C10.7847 6.12572 10.5782 6.21118 10.4258 6.36333L7.17583 9.61333C7.09601 9.68772 7.03198 9.77742 6.98757 9.87708C6.94316 9.97675 6.91928 10.0843 6.91736 10.1934C6.91543 10.3025 6.9355 10.4109 6.97637 10.5121C7.01723 10.6132 7.07806 10.7051 7.15521 10.7823C7.23236 10.8594 7.32427 10.9203 7.42544 10.9611C7.52661 11.002 7.63497 11.0221 7.74407 11.0201C7.85316 11.0182 7.96075 10.9943 8.06042 10.9499C8.16008 10.9055 8.24978 10.8415 8.32417 10.7617L10.1875 8.89833V15.0625C10.1875 15.278 10.2731 15.4847 10.4255 15.637C10.5778 15.7894 10.7845 15.875 11 15.875C11.2155 15.875 11.4222 15.7894 11.5745 15.637C11.7269 15.4847 11.8125 15.278 11.8125 15.0625V8.89833L13.6758 10.7617C13.7502 10.8415 13.8399 10.9055 13.9396 10.9499C14.0393 10.9943 14.1468 11.0182 14.2559 11.0201C14.365 11.0221 14.4734 11.002 14.5746 10.9611C14.6757 10.9203 14.7676 10.8594 14.8448 10.7823C14.9219 10.7051 14.9828 10.6132 15.0236 10.5121C15.0645 10.4109 15.0846 10.3025 15.0826 10.1934C15.0807 10.0843 15.0568 9.97675 15.0124 9.87708C14.968 9.77742 14.904 9.68772 14.8242 9.61333L11.5742 6.36333Z" fill="#AAD6FF"/>
</svg>
